<?xml version="1.0" standalone="no"?><!DOCTYPE svg PUBLIC "-//W3C//DTD SVG 1.1//EN" "http://www.w3.org/Graphics/SVG/1.1/DTD/svg11.dtd"><svg class="icon" width="128px" height="128.00px" viewBox="0 0 1024 1024" version="1.1" xmlns="http://www.w3.org/2000/svg"><path d="M106.708575 0h844.452926v1024H106.708575z" fill="#E60012" /><path d="M447.589382 498.121989c0 65.797923-1.46658 94.227779-4.865479 122.261262a203.141179 203.141179 0 0 1-6.332059 30.372083c49.189893 23.356281 74.51813 40.103042 87.202067 58.79203a21.146501 21.146501 0 0 1 3.398899 10.900259c0 9.344494-5.836593 18.688988-16.558483 18.688988-4.865479 0-6.817616-1.555764-10.711982-12.069559-4.379922-12.069559-27.746112-44.770334-65.262819-70.078752-14.616256 38.923832-45.751357 71.634516-110.043063 103.948828l-3.904275-3.864637c103.740732-67.383415 106.178426-112.133931 106.178426-236.733793 0-14.40816 0-30.372084-0.485557-47.505308l33.602524 14.011786c1.46658 0.386464 1.981865 1.1693 1.981865 1.981866 0 0.386464-0.485557 1.1693-2.437694 2.328691z m85.220202-59.188403c1.46658 0.772927 2.437694 1.555764 2.437694 2.328692s-0.990933 1.555764-3.398898 2.725064l-17.05395 8.175194v112.14384c0 29.589247 0.495466 48.278235 1.981865 65.797924v1.555764c0 5.836593-2.437694 9.354404-10.711981 11.683095-4.379922 1.555764-7.303173 2.338601-9.730958 2.338601-3.408808 0-4.389831-2.338601-4.389831-7.392357v-4.677202c0.990933-15.181087 0.990933-27.647019 0.990932-49.834V445.919661H377.500721v148.73898c0 16.350388 0.495466 30.71891 1.46658 43.601034v1.981865c0 5.450129-1.981865 7.015803-11.693004 10.513794-3.884456 1.1693-6.332059 1.981865-8.759844 1.981866-2.913342 0-3.894365-1.981865-3.894365-6.61943v-4.667292c1.46658-20.641126 1.46658-45.949544 1.46658-72.427263V468.522833c0-14.39825-0.485557-38.933741-1.46658-52.1726l29.222601 21.027589h104.711846l13.149675-16.736851z m239.14176 65.797924c1.981865 1.555764 2.437694 2.725065 2.437694 3.111528 0 0.772927-0.990933 1.1693-3.884456 1.1693h-70.078752v219.987033c0 21.800517-2.972798 26.477719-33.602524 38.160814a18.37189 18.37189 0 0 1-3.894365 0.772927c-1.981865 0-2.972798-0.772927-3.408808-2.725065-1.981865-15.181087-9.740867-20.631216-58.465022-28.816319l1.46658-5.836593c23.3761 3.111528 39.449026 4.290738 50.646564 4.290738 21.423962 0 25.328237-4.677202 25.328237-13.635232V528.0977c-39.449026 62.299931-92.047727 121.884707-149.03626 165.089368l-4.389831-3.111529c57.959647-55.680502 106.673892-119.139824 140.276416-181.053291H565.510359c-10.226424 0-24.357123 1.555764-32.63141 4.280828l-13.635232-14.794623c12.168652 0.772927 24.347213 1.555764 35.554661 1.555764H678.476673v-42.838015c0-15.963924-0.990933-42.828106-1.981865-57.236266l38.487822 17.519688c1.46658 0.772927 2.437694 1.1693 2.437694 1.981865 0 0.386464-0.990933 1.1693-2.437694 1.981865l-14.616256 6.61943v72.030889h23.3761l20.026747-21.503237zM528.935038 217.688069L106.708575 0v20.908677l422.226463 217.68807L951.161501 20.908677V0L528.935038 217.688069z" fill="#E2E2E2" /></svg>