<?xml version="1.0" standalone="no"?><!DOCTYPE svg PUBLIC "-//W3C//DTD SVG 1.1//EN" "http://www.w3.org/Graphics/SVG/1.1/DTD/svg11.dtd"><svg class="icon" width="128px" height="128.00px" viewBox="0 0 1024 1024" version="1.1" xmlns="http://www.w3.org/2000/svg"><path d="M919.893333 95.573333H129.706667c-34.133333 0-63.146667 29.013333-63.146667 63.146667v790.186667c0 34.133333 29.013333 63.146667 63.146667 63.146666h790.186666c34.133333 0 63.146667-29.013333 63.146667-63.146666V158.72c0-34.133333-29.013333-63.146667-63.146667-63.146667z m15.36 807.253334c0 34.133333-29.013333 63.146667-63.146666 63.146666H177.493333c-34.133333 0-63.146667-29.013333-63.146666-63.146666V206.506667c0-34.133333 29.013333-63.146667 63.146666-63.146667h694.613334c34.133333 0 63.146667 29.013333 63.146666 63.146667v696.32z" fill="#E76F54" /><path d="M935.253333 300.373333v-97.28c0-34.133333-29.013333-61.44-63.146666-61.44H177.493333c-34.133333 0-63.146667 27.306667-63.146666 61.44v97.28h820.906666zM720.213333 532.48L486.4 766.293333c-5.12 5.12-10.24 6.826667-17.066667 6.826667s-11.946667-1.706667-17.066666-6.826667l-122.88-122.88c-8.533333-8.533333-8.533333-23.893333 0-34.133333 8.533333-8.533333 23.893333-8.533333 34.133333 0l105.813333 105.813333 218.453334-218.453333c8.533333-8.533333 23.893333-8.533333 34.133333 0 8.533333 11.946667 8.533333 27.306667-1.706667 35.84z" fill="#E76F54" /><path d="M223.573333 180.906667c-13.653333 0-23.893333-10.24-23.893333-23.893334V46.08c0-13.653333 10.24-23.893333 23.893333-23.893333 13.653333 0 23.893333 10.24 23.893334 23.893333v110.933333c0 13.653333-11.946667 23.893333-23.893334 23.893334z" fill="#E76F54" /><path d="M225.28 187.733333H221.866667c-13.653333 0-23.893333-10.24-23.893334-23.893333V40.96c0-13.653333 10.24-23.893333 23.893334-23.893333h3.413333c13.653333 0 23.893333 10.24 23.893333 23.893333v122.88c0 13.653333-10.24 23.893333-23.893333 23.893333z" fill="#E76F54" /><path d="M225.28 196.266667H221.866667c-17.066667 0-32.426667-13.653333-32.426667-32.426667V40.96c0-17.066667 13.653333-32.426667 32.426667-32.426667h3.413333c17.066667 0 32.426667 13.653333 32.426667 32.426667v122.88c0 17.066667-15.36 32.426667-32.426667 32.426667z m-3.413333-170.666667c-8.533333 0-15.36 6.826667-15.36 15.36v122.88c0 8.533333 6.826667 15.36 15.36 15.36h3.413333c8.533333 0 15.36-6.826667 15.36-15.36V40.96c0-8.533333-6.826667-15.36-15.36-15.36H221.866667z" fill="#F7F7F7" /><path d="M827.733333 187.733333h-3.413333c-13.653333 0-23.893333-10.24-23.893333-23.893333V40.96c0-13.653333 10.24-23.893333 23.893333-23.893333h3.413333c13.653333 0 23.893333 10.24 23.893334 23.893333v122.88c0 13.653333-10.24 23.893333-23.893334 23.893333z" fill="#E76F54" /><path d="M827.733333 196.266667h-3.413333c-17.066667 0-32.426667-13.653333-32.426667-32.426667V40.96c0-17.066667 13.653333-32.426667 32.426667-32.426667h3.413333c17.066667 0 32.426667 13.653333 32.426667 32.426667v122.88c0 17.066667-13.653333 32.426667-32.426667 32.426667z m-3.413333-170.666667c-8.533333 0-15.36 6.826667-15.36 15.36v122.88c0 8.533333 6.826667 15.36 15.36 15.36h3.413333c8.533333 0 15.36-6.826667 15.36-15.36V40.96c0-8.533333-6.826667-15.36-15.36-15.36h-3.413333z" fill="#F7F7F7" /></svg>