<?xml version="1.0" standalone="no"?><!DOCTYPE svg PUBLIC "-//W3C//DTD SVG 1.1//EN" "http://www.w3.org/Graphics/SVG/1.1/DTD/svg11.dtd"><svg class="icon" width="128px" height="128.00px" viewBox="0 0 1024 1024" version="1.1" xmlns="http://www.w3.org/2000/svg"><path d="M512 512m-512 0a512 512 0 1 0 1024 0 512 512 0 1 0-1024 0Z" fill="#1DBCEA" /><path d="M774.4 366.933333c0-27.733333-23.466667-51.2-51.2-51.2H300.8c-27.733333 0-51.2 23.466667-51.2 51.2v339.2c0 27.733333 23.466667 51.2 51.2 51.2h422.4c27.733333 0 51.2-23.466667 51.2-51.2V366.933333z m-153.6 130.133334L512 605.866667c-2.133333 2.133333-2.133333 2.133333-4.266667 2.133333 0 2.133333-2.133333 2.133333-2.133333 4.266667-8.533333 8.533333-21.333333 8.533333-29.866667 0l-53.333333-53.333334c-8.533333-8.533333-8.533333-21.333333 0-29.866666 8.533333-8.533333 21.333333-8.533333 29.866667 0l38.4 38.4 102.4-102.4c8.533333-8.533333 21.333333-8.533333 29.866666 0 6.4 8.533333 6.4 23.466667-2.133333 32z m0 0" fill="#FFFFFF" /><path d="M371.2 352c-10.666667 0-21.333333-8.533333-21.333333-21.333333v-42.666667c0-10.666667 8.533333-21.333333 21.333333-21.333333 10.666667 0 21.333333 8.533333 21.333333 21.333333v42.666667c0 12.8-8.533333 21.333333-21.333333 21.333333z m298.666667 0c-10.666667 0-21.333333-8.533333-21.333334-21.333333v-42.666667c0-10.666667 8.533333-21.333333 21.333334-21.333333 10.666667 0 21.333333 8.533333 21.333333 21.333333v42.666667c0 12.8-8.533333 21.333333-21.333333 21.333333z m0 0" fill="#FFFFFF" /></svg>