<?xml version="1.0" standalone="no"?><!DOCTYPE svg PUBLIC "-//W3C//DTD SVG 1.1//EN" "http://www.w3.org/Graphics/SVG/1.1/DTD/svg11.dtd"><svg class="icon" width="128px" height="128.00px" viewBox="0 0 1024 1024" version="1.1" xmlns="http://www.w3.org/2000/svg"><path d="M512 512m-512 0a512 512 0 1 0 1024 0 512 512 0 1 0-1024 0Z" fill="#1DBCEA" /><path d="M810.55288889 346.94636999c0-31.55436999-26.69985223-58.25422222-58.25422222-58.25422222H271.70133333c-31.55436999 0-58.25422222 26.69985223-58.25422222 58.25422222v385.93422222c0 31.55436999 26.69985223 58.25422222 58.25422222 58.25422222h480.59733334c31.55436999 0 58.25422222-26.69985223 58.25422222-58.25422222V346.94636999z m-174.76266667 148.06281558L512 618.79940779c-2.42725888 2.42725888-2.42725888 2.42725888-4.8545189 2.42725888 0 2.42725888-2.42725888 2.42725888-2.42725888 4.8545189-9.70903666 9.70903666-24.27259221 9.70903666-33.98163001 0l-60.6814811-60.68148224c-9.70903666-9.70903666-9.70903666-24.27259221 0-33.98162888 9.70903666-9.70903666 24.27259221-9.70903666 33.98163001 0l43.69066667 43.69066667 116.50844444-116.50844445c9.70903666-9.70903666 24.27259221-9.70903666 33.98162887 0 7.28177778 9.70903666 7.28177778 26.69985223-2.42725888 36.4088889z m0 0" fill="#FFFFFF" /><path d="M351.80088889 329.95555555c-12.13629667 0-24.27259221-9.70903666-24.27259222-24.27259221v-48.54518556c0-12.13629667 9.70903666-24.27259221 24.27259222-24.27259221 12.13629667 0 24.27259221 9.70903666 24.27259221 24.27259221v48.54518556c0 14.56355555-9.70903666 24.27259221-24.27259221 24.27259221z m339.81629668 0c-12.13629667 0-24.27259221-9.70903666-24.27259336-24.27259221v-48.54518556c0-12.13629667 9.70903666-24.27259221 24.27259336-24.27259221 12.13629667 0 24.27259221 9.70903666 24.27259221 24.27259221v48.54518556c0 14.56355555-9.70903666 24.27259221-24.27259221 24.27259221z m0 0" fill="#FFFFFF" /></svg>