<?xml version="1.0" standalone="no"?><!DOCTYPE svg PUBLIC "-//W3C//DTD SVG 1.1//EN" "http://www.w3.org/Graphics/SVG/1.1/DTD/svg11.dtd"><svg class="icon" width="128px" height="128.00px" viewBox="0 0 1024 1024" version="1.1" xmlns="http://www.w3.org/2000/svg"><path fill="#d64835" d="M631 318.87q-55.7-26.4-121.57-26.4t-121.53 26.4q-55.7 26.4-88.15 71.68t-32.45 98.57q0 48.92 27.36 91.06t74.83 69.26v127.39l98.81-94a268.12 268.12 0 0 0 41.17 3.39q65.87 0 121.57-26.39t88.15-71.69q32.45-45.28 32.45-98.81t-32.44-98.77q-32.45-45.29-88.2-71.69zM409.21 521.33q-11.14 13.32-27.12 13.32T355 521.33q-11.18-13.33-11.18-32.21t11.14-32q11.14-13.07 27.13-13.08t27.12 13.08q11.14 13.08 11.14 32t-11.14 32.21z m127.39 0q-11.14 13.32-27.12 13.32t-27.13-13.32q-11.14-13.33-11.14-32.21t11.14-32q11.14-13.07 27.13-13.08t27.12 13.08q11.14 13.08 11.14 32t-11.15 32.21z m127.38 0q-11.14 13.32-27.12 13.32t-27.12-13.32q-11.15-13.33-11.15-32.21t11.14-32q11.14-13.07 27.12-13.08T664 457.15q11.14 13.08 11.14 32T664 521.33z"  /><path fill="#d64835" d="M862.4 112H161.6a49.6 49.6 0 0 0-49.6 49.6v700.8a49.6 49.6 0 0 0 49.6 49.6h700.8a49.6 49.6 0 0 0 49.6-49.6V161.6a49.6 49.6 0 0 0-49.6-49.6zM512 857.36c-190.74 0-345.35-154.65-345.35-345.36S321.27 166.64 512 166.64 857.34 321.25 857.34 512 702.73 857.36 512 857.36z"  /></svg>